<svg width="193" height="51" viewBox="0 0 193 51" xmlns="http://www.w3.org/2000/svg"><path d="M128.258901,10.8494327 C129.5631,11.3958721 130.749197,12.1888169 131.751927,13.1846349 C132.75147,14.188881 133.554576,15.3704543 134.120032,16.6687221 C134.706548,18.0067541 135.006213,19.4524615 134.999891,20.9129738 L134.999891,40.0725739 C135.006554,41.5331201 134.706874,42.9788973 134.120032,44.3168255 C133.553881,45.615565 132.75088,46.797962 131.751927,47.8037921 C130.748301,48.7977929 129.562383,49.5896404 128.258901,50.1361149 C126.915234,50.7095277 125.468565,51.0034543 124.007272,50.9999694 C122.732858,50.9999694 121.69974,49.9686133 121.69974,48.6964095 C121.69974,47.4242057 122.732858,46.3928808 124.007272,46.3928808 C124.851428,46.393194 125.687412,46.2278527 126.467679,45.9062603 C127.227776,45.5964704 127.915276,45.132723 128.486769,44.544299 C129.056714,43.9506023 129.519295,43.2628067 129.853982,42.5114349 C130.196537,41.7490304 130.372543,40.9225502 130.370292,40.0869709 L130.370292,38.5695214 C127.256569,40.7396819 123.248881,41.1739544 119.741222,39.7212857 C118.436642,39.1755531 117.250416,38.3825222 116.248195,37.3860835 C115.246772,36.3822854 114.443436,35.1993958 113.880091,33.8991169 C113.291606,32.5617117 112.991853,31.1155824 113.000168,29.6548652 L113.000168,20.9129738 C112.997145,19.4542491 113.291569,18.0101542 113.865668,16.6687221 C114.414319,15.3612936 115.219494,14.1766763 116.233773,13.1846349 C117.24212,12.1956813 118.426821,11.4036701 119.7268,10.8494327 C122.457685,9.71685577 125.528016,9.71685577 128.258901,10.8494327 Z M15.2701178,0.054190819 L15.6154501,0.0776622983 C15.677674,0.0819147902 15.7422321,0.0863367093 15.8091245,0.0909267622 C16.8675996,0.18937373 17.9110757,0.407708536 18.9189553,0.741621404 C20.2380147,1.16953233 21.4960403,1.76254841 22.6622702,2.50616888 C24.0014269,3.37333334 25.1126913,4.54199554 25.9045567,5.91592247 C25.985182,6.11482476 26.0773251,6.33361728 26.192504,6.57230003 C26.2817094,6.82485803 26.31891,7.09245136 26.301924,7.35938482 C26.2768563,7.90211452 26.0633462,8.41981381 25.6972347,8.82557886 C25.3041917,9.31960705 24.694814,9.59755201 24.0588146,9.57288319 C23.3794794,9.61269226 22.7234084,9.32188828 22.302336,8.79432278 C21.7753925,8.19761591 21.2599668,7.63784803 20.7560591,7.12070207 C20.2610036,6.60886336 19.7061912,6.15675627 19.1032416,5.7738494 C18.4615179,5.3816706 17.767636,5.07947486 17.0415389,4.87594762 C16.1515687,4.64143347 15.2328129,4.53049594 14.3117986,4.54633811 C12.9896923,4.51798116 11.6709776,4.68950829 10.4014743,5.05495969 C9.45716868,5.33036361 8.57335043,5.77752171 7.79555123,6.37339774 C7.16058336,6.86651686 6.66888443,7.51640158 6.37021211,8.2572866 C6.09019156,8.96253651 5.94661822,9.71333377 5.94692958,10.470785 C5.92802309,11.4675467 6.15637266,12.4537538 6.61208784,13.3435024 C7.04851745,14.1692035 7.65924935,14.8929885 8.40312003,15.466074 C9.19806003,16.0694993 10.1033499,16.5161689 11.069512,16.7816706 C12.1422113,17.0846522 13.2536675,17.2329956 14.369388,17.2220971 C16.2870669,17.2114821 18.1932438,17.5149023 20.0102756,18.1199988 C21.7149063,18.6760346 23.2983181,19.5435598 24.6779012,20.677314 C26.016163,21.7947669 27.0962186,23.1822419 27.8453215,24.7462866 C28.6277115,26.4140025 29.0212912,28.2335817 28.9971107,30.0711851 C29.0386132,31.8856458 28.6324619,33.6828608 27.8136473,35.3079984 C27.0422239,36.7917179 25.9335372,38.0792944 24.5742402,39.0700931 C23.1547785,40.0972276 21.5502053,40.8484224 19.8461456,41.2835915 C17.976312,41.7698756 16.0496425,42.0106351 14.1159944,42 C13.7128682,42 12.9450087,41.9399691 11.812416,41.8206277 C10.4961263,41.6513069 9.21068959,41.2992736 7.99423487,40.7749699 C6.4461005,40.1137681 5.01363607,39.2151923 3.74989171,38.1125207 C2.3408696,36.9153183 1.17180358,35.2559049 0.242693632,33.1342805 C0.0737816581,32.736987 -0.00862482372,32.309096 0.000817903028,31.8783545 C-0.0151241919,31.2823386 0.20250115,30.7032193 0.6083867,30.2615631 C0.990853984,29.8398842 1.54100286,29.6042528 2.11435106,29.6165513 C2.70433441,29.6088817 3.27277333,29.8350982 3.69230225,30.2445143 C4.1716033,30.7109013 4.54633872,31.2713924 4.79226092,31.8897204 C5.56801892,33.5398043 6.82402352,34.9246359 8.40024055,35.8677662 C10.0760938,36.9247899 12.0658096,37.4533017 14.369388,37.4533017 C15.6148944,37.4542198 16.8563924,37.3140711 18.0695108,37.0356068 C19.2108746,36.7859161 20.2986888,36.3396054 21.2830026,35.7171688 C22.2011885,35.1316827 22.9690575,34.3437967 23.5261121,33.4155851 C24.1157733,32.4068714 24.4145063,31.2581751 24.389954,30.0939168 C24.4073097,28.8886961 24.125568,27.6975892 23.5693042,26.6244926 C23.0352222,25.5989156 22.2804702,24.7009023 21.3578689,23.9932994 C20.4003672,23.2585593 19.3181248,22.6976419 18.1616539,22.3367274 C16.9353153,21.9533764 15.6557686,21.7616292 14.369388,21.7684352 C12.6109002,21.7834084 10.8612442,21.521547 9.18633667,20.9927162 C7.67570125,20.5192073 6.27450759,19.7564068 5.06293138,18.7479618 C3.90886199,17.7683809 2.97931164,16.5576107 2.33607048,15.1961351 C1.64915819,13.714459 1.30678166,12.0999304 1.33401389,10.470785 C1.33401389,7.15953537 2.51651745,4.58706572 4.88152459,2.75337602 C7.24653172,0.919686314 10.413952,0.00189430755 14.3837854,0 C14.4458048,0 14.741249,0.0184947186 15.2701178,0.054190819 Z M79.6903103,11 C80.294901,11.0004491 80.8744979,11.2383264 81.3010873,11.6612406 C81.7565177,12.0793335 82.0104864,12.668788 81.9996679,13.2826275 L81.9996679,30.2003331 C82.0112559,31.6447367 81.7162534,33.0755242 81.1336588,34.4005518 C80.5678012,35.6869151 79.7629835,36.8573386 78.7607939,37.851342 C77.7588194,38.8373617 76.5726135,39.6221793 75.2678904,40.1623171 C72.533055,41.2792276 69.4609892,41.2792276 66.7261539,40.1623171 C65.4264321,39.6130479 64.2418806,38.8293248 63.2332504,37.851342 C61.1604217,35.8326708 59.9991146,33.0746318 60.0116965,30.2003331 L60,13.279778 C59.993116,12.6730806 60.2341633,12.0892049 60.668786,11.6601769 C61.1034086,11.231149 61.6948984,10.9932046 62.3095074,11 C62.9126826,11.0004503 63.4910415,11.2372207 63.9173976,11.658391 C64.3728281,12.076484 64.6267968,12.6659385 64.6159783,13.279778 L64.6159783,30.1974836 C64.6127329,31.022212 64.7776623,31.8391507 65.1009434,32.5996439 C65.4228278,33.3452214 65.8874167,34.0224913 66.4692378,34.5943203 C67.6674872,35.7817938 69.3006467,36.4414443 70.9984655,36.4237236 C71.843103,36.4250115 72.6797555,36.2623523 73.4608181,35.9450012 C74.2268115,35.6390938 74.9198923,35.179106 75.4959395,34.5943203 C76.0649072,34.0120969 76.5278002,33.3372992 76.8642339,32.5996439 C77.2071234,31.8441645 77.3832621,31.0253179 77.3809527,30.1974836 L77.3809527,13.279778 C77.3739189,12.6730806 77.6149662,12.0892049 78.0495889,11.6601769 C78.4842116,11.231149 79.0757013,10.9932046 79.6903103,11 Z M102.254315,11.8404579 C103.559373,12.3811239 104.74625,13.1656908 105.74964,14.1509874 C106.74984,15.144623 107.553474,16.3137122 108.119303,17.5982631 C108.706204,18.922158 109.006067,20.3525907 108.999628,21.7976717 L108.999628,38.7149637 C109.011093,39.3279817 108.756982,39.916695 108.30114,40.333189 C107.875704,40.7576322 107.295472,40.9957561 106.690578,40.9941543 C106.076051,41.0010961 105.48464,40.7631976 105.050075,40.3342524 C104.61551,39.9053072 104.374495,39.3215441 104.381528,38.7149637 L104.381528,21.7976717 C104.382698,20.9728679 104.206606,20.1572003 103.864878,19.4045216 C103.530969,18.6613946 103.067956,17.9816406 102.496765,17.3959849 C101.921562,16.8104063 101.228367,16.3503704 100.461915,16.0455645 C99.6811346,15.72737 98.8446006,15.5637756 97.9998901,15.5640855 C95.4287441,15.5483286 93.1017437,17.0646033 92.1060394,19.4045216 C91.7808205,20.1633655 91.6148809,20.9794265 91.6182525,21.8033697 L91.6182525,38.7206617 C91.6297172,39.3336797 91.3756061,39.922393 90.9197648,40.338887 C90.4943285,40.7633302 89.9140963,41.0014541 89.3092023,41 C88.6946751,41.0067941 88.1032641,40.7688956 87.6686993,40.3399504 C87.2341345,39.9110052 86.9931192,39.3272421 87,38.7206617 L87,21.7976717 C86.9923879,20.3553453 87.2820876,18.9265471 87.8516143,17.5982631 C88.4006259,16.3046484 89.20633,15.1325473 90.2212771,14.1509874 C91.2308018,13.173107 92.4161561,12.3895471 93.7166019,11.8404579 C96.4492833,10.7198474 99.5216337,10.7198474 102.254315,11.8404579 Z M164.744413,1 C165.344444,0.99393471 165.921673,1.23309028 166.345981,1.66367201 C166.770288,2.09425374 167.005958,2.68001927 166.999866,3.28892241 L166.999866,30.1566375 C167.007193,31.6082148 166.713247,33.045092 166.137156,34.3737616 C165.586525,35.6657297 164.801319,36.8410587 163.822497,37.8384409 C162.843398,38.8291311 161.683817,39.6171795 160.408305,40.1587174 C159.094341,40.7212776 157.681554,41.0074294 156.255453,41 C155.009801,41 154,39.9751203 154,38.7110479 C154,37.4469756 155.009801,36.4222425 156.255453,36.4222425 C157.060655,36.4271139 157.858202,36.2634926 158.598304,35.9415933 C159.324233,35.6270836 159.991722,35.1887354 160.571826,34.6455572 C161.142238,34.1078372 161.60549,33.4638742 161.936375,32.7487097 C162.276807,32.0117406 162.468523,31.2131094 162.500238,30.3998231 L162.486141,3.28892241 C162.476027,2.67294794 162.725234,2.08182573 163.171235,1.66387053 C163.587156,1.23817887 164.153686,0.999149197 164.744413,1 Z M49.2644256,11.8340572 C50.5698271,12.3699017 51.7566498,13.1484814 52.7591453,14.1266639 C53.7618221,15.1117143 54.5670782,16.2719047 55.1332442,17.547199 C55.7155694,18.8618712 56.0107004,20.2811665 55.9997036,21.7140328 L55.9997036,25.9995958 C56.006741,26.601471 55.7655684,27.1807059 55.3307197,27.6063237 C54.895871,28.0319416 54.3040737,28.2679947 53.6891451,28.2611067 L38.6214154,28.2611067 L38.6214154,30.2851589 C38.6191048,31.1064133 38.7953351,31.9187514 39.1384029,32.668226 C39.4729501,33.4011425 39.9363133,34.0709083 40.5074088,34.647048 C41.0827117,35.2284082 41.776434,35.6849248 42.5435885,35.9869932 C43.3250572,36.3018218 44.1621448,36.4631881 45.0072215,36.4619104 C47.5166717,36.4937923 49.8075828,35.0692064 50.84427,32.8321855 L50.9049221,32.6540915 C51.0576615,32.2288496 51.346295,31.8630779 51.7280586,31.6109697 C52.112113,31.3534333 52.5680145,31.2181841 53.0335241,31.2236859 C53.6556918,31.2130916 54.2531435,31.4617984 54.6769089,31.907793 C55.1047716,32.3258311 55.3448614,32.8934771 55.3440826,33.4851968 C55.3444023,33.7772004 55.2824278,34.0660525 55.1621262,34.3332633 L55.0408218,34.570722 C54.2051366,36.4579808 52.8326212,38.0702333 51.0868786,39.2152999 C49.2999553,40.4047772 47.1824823,41.0275214 45.0216625,40.9990666 C43.5597625,41.0067781 42.1114681,40.7240374 40.7644585,40.1679614 C39.4581672,39.6321832 38.2703853,38.8536178 37.2668505,37.8753547 C36.2641136,36.8898666 35.4597238,35.7285537 34.8956399,34.4519927 C34.3113431,33.1379286 34.0161261,31.7182197 34.0291804,30.2851589 L34.0001463,21.7140328 C33.9925292,20.2828945 34.2824182,18.8651795 34.8523169,17.547199 C35.4016871,16.2636189 36.2079175,15.1006098 37.2235276,14.1266639 C38.2326822,13.1564544 39.4178497,12.3789606 40.7182473,11.8340572 C43.4536825,10.7219809 46.5289904,10.7219809 49.2644256,11.8340572 Z M190.689094,19 C191.294259,18.9991423 191.874634,19.2401007 192.300719,19.6692271 C192.75639,20.0923899 193.010492,20.6889921 192.999668,21.3102751 L192.999668,30.0692608 C193.011262,31.5311793 192.716104,32.9793166 192.133203,34.3204116 C191.568091,35.6222424 190.763818,36.8068742 189.761976,37.8130463 C188.758435,38.8111048 187.570645,39.6054247 186.264345,40.1520444 C183.529101,41.2826519 180.456244,41.2826519 177.720999,40.1520444 C176.420082,39.5954779 175.234071,38.8023472 174.223368,37.8130463 C172.14873,35.769196 170.986751,32.9765282 171,30.0663767 L171,21.307391 C170.993877,20.6935748 171.235307,20.1030829 171.669984,19.669027 C172.104661,19.234971 172.695997,18.9938858 173.310692,19 C173.915856,18.9991423 174.496232,19.2401007 174.922317,19.6692271 C175.377232,20.091714 175.631266,20.6871066 175.621265,21.307391 L175.621265,30.0663767 C175.617581,30.9014347 175.783635,31.7285546 176.109374,32.4976658 C176.756039,34.0317836 177.97827,35.2522683 179.514582,35.8980096 C180.304315,36.2253428 181.152085,36.3901422 182.007113,36.3825369 C182.852196,36.3838405 183.689289,36.2192089 184.470763,35.8980096 C185.232757,35.5880628 185.921416,35.1224086 186.492515,34.5309502 C187.063614,33.9431522 187.52698,33.2598335 187.86153,32.5120862 C188.2046,31.7474459 188.380831,30.9186698 188.37852,30.0807972 L188.37852,21.307391 C188.372279,20.6935748 188.613709,20.1030829 189.048386,19.669027 C189.483063,19.234971 190.0744,18.9938858 190.689094,19 Z M124.007272,14.6128227 C121.431536,14.5898677 119.09744,16.1235118 118.09999,18.4942686 C117.777268,19.2618181 117.612474,20.0863193 117.61537,20.9187326 L117.61537,29.6433476 C117.613101,30.4798605 117.7891,31.3072915 118.131719,32.070691 C118.465828,32.8172248 118.928584,33.4994345 119.498931,34.0862786 C120.073481,34.6784402 120.766294,35.1434387 121.532444,35.4511194 C122.312889,35.7717974 123.148881,35.9361618 123.99285,35.9349046 C124.823946,35.9379066 125.648076,35.7835281 126.421528,35.4799135 C127.167737,35.192691 127.849204,34.7600501 128.426197,34.2072139 C128.993719,33.6585401 129.456941,33.0117398 129.793409,32.2981644 C130.140387,31.5559928 130.336464,30.7524923 130.370298,29.9341681 L130.370298,20.9129738 C130.371462,20.0793624 130.195486,19.2549847 129.853982,18.4942686 C129.51926,17.7437763 129.056666,17.0569332 128.486769,16.4642839 C127.916148,15.8741113 127.228469,15.4092624 126.467679,15.0994432 C125.687412,14.7778508 124.851428,14.6125685 124.007272,14.6128227 Z M45.0361035,15.5231468 C42.4503482,15.4957845 40.1055818,17.0049126 39.1066327,19.3394464 C38.7834878,20.0929953 38.6184772,20.902457 38.6213769,21.7196866 L38.6213769,23.738085 L51.3930334,23.738085 L51.3930334,21.7140328 C51.3941985,20.895627 51.2179914,20.0862865 50.8760401,19.3394464 C50.5458247,18.6016791 50.0875273,17.9254783 49.5214752,17.3408362 C48.9501055,16.7614287 48.2615248,16.3050589 47.4997365,16.000891 C46.7184461,15.6851647 45.8813658,15.5227808 45.0361035,15.5231468 Z M190.5,11 C191.880712,11 193,12.1192881 193,13.5 C193,14.8807119 191.880712,16 190.5,16 C189.119288,16 188,14.8807119 188,13.5 C188,12.1192881 189.119288,11 190.5,11 Z M173.5,11 C174.880712,11 176,12.1192881 176,13.5 C176,14.8807119 174.880712,16 173.5,16 C172.119288,16 171,14.8807119 171,13.5 C171,12.1192881 172.119288,11 173.5,11 Z" fill-rule="evenodd"/></svg>